<?xml version="1.0" encoding="UTF-8"?>
<svg width="110px" height="110px" viewBox="0 0 110 110" version="1.1" xmlns="http://www.w3.org/2000/svg" xmlns:xlink="http://www.w3.org/1999/xlink">
    <!-- Generator: Sketch 58 (84663) - https://sketch.com -->
    <title>Group</title>
    <desc>Created with Sketch.</desc>
    <defs>
        <linearGradient x1="0%" y1="28.3265172%" x2="100%" y2="150.226336%" id="linearGradient-1">
            <stop stop-color="#F7590D" offset="0%"></stop>
            <stop stop-color="#F7B30D" offset="100%"></stop>
        </linearGradient>
        <linearGradient x1="0%" y1="28.3276735%" x2="100%" y2="150.220989%" id="linearGradient-2">
            <stop stop-color="#F7590D" offset="0%"></stop>
            <stop stop-color="#F7B30D" offset="100%"></stop>
        </linearGradient>
        <linearGradient x1="0%" y1="28.3275289%" x2="100%" y2="150.221657%" id="linearGradient-3">
            <stop stop-color="#F7590D" offset="0%"></stop>
            <stop stop-color="#F7B30D" offset="100%"></stop>
        </linearGradient>
        <linearGradient x1="11.4523535%" y1="28.3265172%" x2="88.5476465%" y2="150.226336%" id="linearGradient-4">
            <stop stop-color="#F7590D" offset="0%"></stop>
            <stop stop-color="#F7B30D" offset="100%"></stop>
        </linearGradient>
    </defs>
    <g id="Page-1" stroke="none" stroke-width="1" fill="none" fill-rule="evenodd">
        <g id="Group">
            <rect id="Rectangle" fill="#323440" x="0" y="0" width="110" height="110" rx="10"></rect>
            <g id="Group-2" transform="translate(91.000000, 10.000000)" fill="#F7B30D">
                <circle id="Oval-Copy" cx="4.5" cy="4.5" r="4.5"></circle>
            </g>
            <g id="010-strategy" transform="translate(25.000000, 30.000000)" fill-rule="nonzero">
                <path d="M51.5963636,3.45777778 C46.9626263,3.45777778 43.1925253,7.22767677 43.1925253,11.8614141 C43.1925253,16.4951515 46.9624242,20.2652525 51.5963636,20.2652525 C56.230101,20.2652525 60,16.4951515 60,11.8614141 C60,7.22767677 56.230101,3.45777778 51.5963636,3.45777778 Z M51.5963636,16.7478788 C48.9018182,16.7478788 46.709899,14.5559596 46.709899,11.8614141 C46.709899,9.16707071 48.9018182,6.97515152 51.5963636,6.97515152 C54.2907071,6.97515152 56.4826263,9.16707071 56.4826263,11.8614141 C56.4828283,14.5559596 54.2907071,16.7478788 51.5963636,16.7478788 Z" id="Shape" fill="url(#linearGradient-1)"></path>
                <path d="M2.17616162,14.7662626 C2.51959596,15.1094949 2.96969697,15.2812121 3.41979798,15.2812121 C3.86989899,15.2812121 4.32,15.1094949 4.66343434,14.7662626 L9.23434343,10.1953535 L13.8052525,14.7662626 C14.1486869,15.1094949 14.5987879,15.2812121 15.0488889,15.2812121 C15.4989899,15.2812121 15.9490909,15.1094949 16.2925253,14.7662626 C16.9791919,14.079596 16.9791919,12.9658586 16.2925253,12.2789899 L11.7214141,7.70828283 L16.2923232,3.13737374 C16.9789899,2.45070707 16.9789899,1.3369697 16.2923232,0.65010101 C15.6054545,-0.0363636364 14.4921212,-0.0363636364 13.8050505,0.65010101 L9.23434343,5.2210101 L4.66343434,0.65010101 C3.97656566,-0.0363636364 2.86323232,-0.0363636364 2.17616162,0.65010101 C1.48949495,1.33676768 1.48949495,2.45050505 2.17616162,3.13737374 L6.74707071,7.70828283 L2.17616162,12.2789899 C1.48949495,12.9658586 1.48949495,14.0793939 2.17616162,14.7662626 L2.17616162,14.7662626 Z" id="Path" fill="url(#linearGradient-2)"></path>
                <path d="M39.549899,35.5367677 C38.8630303,34.850303 37.749697,34.850303 37.0626263,35.5367677 L32.4919192,40.1074747 L27.9210101,35.5367677 C27.2341414,34.850303 26.1208081,34.850303 25.4337374,35.5367677 C24.7470707,36.2236364 24.7470707,37.3371717 25.4337374,38.0240404 L30.0046465,42.5947475 L25.4337374,47.1656566 C24.7470707,47.8523232 24.7470707,48.9660606 25.4337374,49.6529293 C25.7771717,49.9961616 26.2272727,50.1678788 26.6773737,50.1678788 C27.1274747,50.1678788 27.5775758,49.9961616 27.9210101,49.6529293 L32.4919192,45.0820202 L37.0626263,49.6527273 C37.4060606,49.9959596 37.8561616,50.1676768 38.3062626,50.1676768 C38.7563636,50.1676768 39.2064646,49.9959596 39.549899,49.6527273 C40.2365657,48.9658586 40.2365657,47.8523232 39.549899,47.1654545 L34.9791919,42.5947475 L39.549899,38.0240404 C40.2367677,37.3371717 40.2367677,36.2234343 39.549899,35.5367677 L39.549899,35.5367677 Z" id="Path" fill="url(#linearGradient-3)"></path>
                <path d="M39.6868687,10.8759596 L32.5945455,4.71070707 C31.8616162,4.07333333 30.7507071,4.15151515 30.1135354,4.88424242 C29.4763636,5.61717172 29.5541414,6.72787879 30.2870707,7.36525253 L34.0482828,10.6349495 C22.9468687,12.0868687 16.3737374,17.8882828 12.719596,22.7917172 C9.5189899,27.0866667 8.02262626,31.3171717 7.42181818,33.419596 C3.24929293,33.9074747 -1.42108547e-14,37.4624242 -1.42108547e-14,41.7640404 C-1.42108547e-14,46.3977778 3.76989899,50.1678788 8.40363636,50.1678788 C13.0373737,50.1678788 16.8074747,46.3979798 16.8074747,41.7640404 C16.8074747,38.0339394 14.3638384,34.8654545 10.9939394,33.7707071 C11.6268687,31.7711111 12.9977778,28.269899 15.6250505,24.780202 C20.1987879,18.7052525 26.5525253,15.1276768 34.5454545,14.110303 L31.0408081,18.1420202 C30.4036364,18.8749495 30.4814141,19.9856566 31.2143434,20.6230303 C31.5472727,20.9125253 31.9581818,21.0543434 32.3672727,21.0543434 C32.8587879,21.0543434 33.3476768,20.8494949 33.6953535,20.4494949 L39.8606061,13.3569697 C40.4977778,12.6238384 40.42,11.5133333 39.6868687,10.8759596 Z M13.290101,41.7640404 C13.290101,44.4585859 11.0981818,46.6505051 8.40363636,46.6505051 C5.70929293,46.6505051 3.51737374,44.4585859 3.51737374,41.7640404 C3.51737374,39.069697 5.70929293,36.8777778 8.40363636,36.8777778 C11.0979798,36.8777778 13.290101,39.069697 13.290101,41.7640404 Z" id="Shape" fill="url(#linearGradient-4)"></path>
            </g>
        </g>
    </g>
</svg>