<?xml version="1.0" encoding="UTF-8"?>
<svg width="110px" height="110px" viewBox="0 0 110 110" version="1.1" xmlns="http://www.w3.org/2000/svg" xmlns:xlink="http://www.w3.org/1999/xlink">
    <!-- Generator: Sketch 58 (84663) - https://sketch.com -->
    <title>Group</title>
    <desc>Created with Sketch.</desc>
    <defs>
        <linearGradient x1="0%" y1="0%" x2="86.9534177%" y2="100%" id="linearGradient-1">
            <stop stop-color="#F7590D" offset="0%"></stop>
            <stop stop-color="#F7B30D" offset="100%"></stop>
        </linearGradient>
        <linearGradient x1="0%" y1="0%" x2="86.9534177%" y2="100%" id="linearGradient-2">
            <stop stop-color="#F7590D" offset="0%"></stop>
            <stop stop-color="#F7B30D" offset="100%"></stop>
        </linearGradient>
    </defs>
    <g id="Page-1" stroke="none" stroke-width="1" fill="none" fill-rule="evenodd">
        <g id="Group">
            <rect id="Rectangle" fill="#323440" x="0" y="0" width="110" height="110" rx="10"></rect>
            <g id="Group-2" transform="translate(91.000000, 10.000000)" fill="#F7B30D">
                <circle id="Oval-Copy" cx="4.5" cy="4.5" r="4.5"></circle>
            </g>
            <g id="013-cogwheel" transform="translate(25.000000, 25.000000)" fill-rule="nonzero">
                <path d="M57.9660606,22.3727273 L53.190303,22.3727273 C52.8094949,21.2151515 52.3414141,20.0868687 51.7894949,18.9965657 L55.1682828,15.6179798 C55.549697,15.2363636 55.7640404,14.7191919 55.7640404,14.179798 C55.7640404,13.640404 55.549697,13.1230303 55.1682828,12.7416162 L47.2581818,4.83171717 C46.8765657,4.45030303 46.3593939,4.2359596 45.82,4.2359596 C45.2806061,4.2359596 44.7630303,4.45030303 44.3818182,4.83171717 L41.0032323,8.21050505 C39.9129293,7.65858586 38.7848485,7.19030303 37.6272727,6.80969697 L37.6272727,2.03393939 C37.6272727,0.910707071 36.7165657,0 35.5933333,0 L24.4068687,0 C23.2836364,0 22.3729293,0.910707071 22.3729293,2.03393939 L22.3729293,6.80969697 C21.2153535,7.19050505 20.0870707,7.65858586 18.9967677,8.21050505 L15.6181818,4.83151515 C14.8236364,4.03737374 13.5361616,4.03737374 12.7418182,4.83151515 L4.83171717,12.7414141 C4.03737374,13.5357576 4.03737374,14.8236364 4.83171717,15.6177778 L8.21050505,18.9963636 C7.65858586,20.0866667 7.19030303,21.2149495 6.80969697,22.3725253 L2.03393939,22.3725253 C0.910707071,22.3727273 0,23.2834343 0,24.4066667 L0,35.5931313 C0,36.7163636 0.910707071,37.6270707 2.03393939,37.6270707 L6.80969697,37.6270707 C7.19050505,38.7846465 7.65858586,39.9127273 8.21050505,41.0030303 L4.83171717,44.3816162 C4.45030303,44.7630303 4.2359596,45.280404 4.2359596,45.819798 C4.2359596,46.3591919 4.45030303,46.8765657 4.83171717,47.2579798 L12.7416162,55.1680808 C13.1232323,55.5494949 13.640404,55.7638384 14.179798,55.7638384 C14.7191919,55.7638384 15.2367677,55.5494949 15.6179798,55.1680808 L18.9965657,51.7892929 C20.0868687,52.3412121 21.2151515,52.8094949 22.3727273,53.190101 L22.3727273,57.9658586 C22.3727273,59.0890909 23.2834343,59.999798 24.4066667,59.999798 L35.5931313,59.999798 C36.7163636,59.999798 37.6270707,59.0890909 37.6270707,57.9658586 L37.6270707,53.190101 C38.7846465,52.8092929 39.9127273,52.3412121 41.0030303,51.7892929 L44.3816162,55.1680808 C44.7630303,55.5494949 45.280404,55.7638384 45.819798,55.7638384 C46.3591919,55.7638384 46.8767677,55.5494949 47.2579798,55.1680808 L55.1680808,47.2579798 C55.5494949,46.8763636 55.7638384,46.3591919 55.7638384,45.819798 C55.7638384,45.280404 55.5494949,44.7628283 55.1680808,44.3816162 L51.7892929,41.0030303 C52.3412121,39.9127273 52.8094949,38.7846465 53.190101,37.6270707 L57.9658586,37.6270707 C59.0890909,37.6270707 59.999798,36.7163636 59.999798,35.5931313 L59.999798,24.4066667 C59.999798,23.2834343 59.0892929,22.3727273 57.9660606,22.3727273 Z M55.9323232,33.5591919 L55.9323232,33.5591919 L51.6678788,33.5591919 C50.74,33.5591919 49.9294949,34.1874747 49.6981818,35.0862626 C49.2256566,36.9226263 48.4937374,38.6864646 47.5228283,40.3290909 C47.0507071,41.1280808 47.1793939,42.1456566 47.8357576,42.8022222 L50.8535354,45.82 L45.819798,50.8537374 L42.8020202,47.8359596 C42.1454545,47.179798 41.1280808,47.0511111 40.3288889,47.5230303 C38.6862626,48.4939394 36.9222222,49.2258586 35.0860606,49.6983838 C34.1872727,49.929697 33.5589899,50.740202 33.5589899,51.6680808 L33.5589899,55.9323232 L26.440404,55.9323232 L26.440404,51.6680808 C26.440404,50.740202 25.8121212,49.929697 24.9133333,49.6983838 C23.0769697,49.2258586 21.3131313,48.4939394 19.6705051,47.5230303 C18.8715152,47.0513131 17.8541414,47.1793939 17.1973737,47.8359596 L14.179798,50.8533333 L9.14626263,45.819596 L12.1640404,42.8018182 C12.820202,42.1454545 12.9490909,41.1278788 12.4769697,40.3286869 C11.5060606,38.6860606 10.7741414,36.9220202 10.3016162,35.0858586 C10.070303,34.1870707 9.25979798,33.5587879 8.33191919,33.5587879 L4.06787879,33.5587879 L4.06787879,26.440202 L8.33212121,26.440202 C9.26,26.440202 10.0705051,25.8119192 10.3018182,24.9131313 C10.7743434,23.0767677 11.5062626,21.3129293 12.4771717,19.670303 C12.9492929,18.8713131 12.8206061,17.8537374 12.1642424,17.1971717 L9.14646465,14.179596 L14.179798,9.14626263 L17.1975758,12.1640404 C17.8539394,12.820202 18.8713131,12.9486869 19.6707071,12.4769697 C21.3133333,11.5060606 23.0773737,10.7741414 24.9135354,10.3016162 C25.8123232,10.070303 26.4406061,9.25979798 26.4406061,8.33191919 L26.4406061,4.06767677 L33.5591919,4.06767677 L33.5591919,8.33191919 C33.5591919,9.25979798 34.1874747,10.070303 35.0862626,10.3016162 C36.9226263,10.7741414 38.6864646,11.5060606 40.3290909,12.4769697 C41.1280808,12.9488889 42.1456566,12.820404 42.8022222,12.1640404 L45.82,9.14626263 L50.8537374,14.179798 L47.8359596,17.1975758 C47.179798,17.8539394 47.0509091,18.8715152 47.5230303,19.6707071 C48.4939394,21.3133333 49.2258586,23.0773737 49.6983838,24.9135354 C49.929697,25.8123232 50.740202,26.4406061 51.6680808,26.4406061 L55.9323232,26.4406061 L55.9323232,33.5591919 L55.9323232,33.5591919 Z" id="Shape" fill="url(#linearGradient-1)"></path>
                <path d="M30,17.8981818 C23.3270707,17.8981818 17.8983838,23.3268687 17.8983838,29.999798 C17.8983838,36.6727273 23.3270707,42.1014141 30,42.1014141 C36.6729293,42.1014141 42.1016162,36.6727273 42.1016162,29.999798 C42.1016162,23.3268687 36.6729293,17.8981818 30,17.8981818 Z M30,38.0337374 C25.570101,38.0337374 21.9660606,34.429697 21.9660606,29.999798 C21.9660606,25.569899 25.570101,21.9658586 30,21.9658586 C34.429899,21.9658586 38.0339394,25.569899 38.0339394,29.999798 C38.0339394,34.429697 34.429899,38.0337374 30,38.0337374 Z" id="Shape" fill="url(#linearGradient-2)"></path>
            </g>
        </g>
    </g>
</svg>