<?xml version="1.0" encoding="UTF-8"?>
<svg width="110px" height="110px" viewBox="0 0 110 110" version="1.1" xmlns="http://www.w3.org/2000/svg" xmlns:xlink="http://www.w3.org/1999/xlink">
    <!-- Generator: Sketch 58 (84663) - https://sketch.com -->
    <title>Group</title>
    <desc>Created with Sketch.</desc>
    <defs>
        <linearGradient x1="0.368580921%" y1="0%" x2="99.6314191%" y2="100%" id="linearGradient-1">
            <stop stop-color="#F7590D" offset="0%"></stop>
            <stop stop-color="#F7B30D" offset="100%"></stop>
        </linearGradient>
    </defs>
    <g id="Page-1" stroke="none" stroke-width="1" fill="none" fill-rule="evenodd">
        <g id="Group">
            <rect id="Rectangle" fill="#323440" x="0" y="0" width="110" height="110" rx="10"></rect>
            <g id="Group-2" transform="translate(91.000000, 10.000000)" fill="#F7B30D">
                <circle id="Oval-Copy" cx="4.5" cy="4.5" r="4.5"></circle>
            </g>
            <g id="009-manager" transform="translate(25.000000, 25.000000)" fill-rule="nonzero">
                <path d="M46.574707,15.4527282 L41.2509155,23.9025879 L41.5177917,20.8135986 C42.8388977,10.1060486 37.0138549,1.16317746 36.7648315,0.787353516 L36.2434388,0 L22.5650025,0 C17.2238159,0 12.096405,2.26409906 8.4979248,6.21139523 C4.89944461,10.1586914 3.1178284,15.4728698 3.60946652,20.7806396 L4.11071777,26.5809632 C3.89373773,27.1943665 3.77975461,27.8471374 3.77975461,28.5195923 C3.77975461,31.1590576 5.55358887,33.391571 7.97195438,34.0878295 L7.97195438,34.9241638 C7.97195438,38.0497741 10.2960205,40.6420898 13.30719,41.0636902 L13.30719,43.684845 L7.5650025,43.684845 C3.39385992,43.684845 8.52651283e-14,47.0787048 8.52651283e-14,51.2498474 L8.52651283e-14,60 L54.057312,60 L54.057312,36.4077759 L59.7784424,36.4077759 L46.574707,15.4527282 Z M50.541687,56.484375 L45.1300049,56.484375 L45.1300049,51.2498474 C45.1300049,49.0145873 44.1545105,47.0031738 42.6077271,45.6170654 L42.6077271,32.8921509 L39.7416687,32.8921509 L46.574707,22.0472718 L53.4077454,32.8921509 L50.541687,32.8921509 L50.541687,56.484375 Z M3.515625,51.2498474 C3.515625,49.0168763 5.33248898,47.20047 7.5650025,47.20047 L16.1810303,47.20047 L17.3240661,51.9332885 L15.3735352,56.484375 L3.515625,56.484375 L3.515625,51.2498474 Z M9.57321164,30.7974244 C8.31710813,30.7974244 7.29537961,29.7756959 7.29537961,28.5195923 C7.29537961,27.8952026 7.54302984,27.3129272 7.99255371,26.8794251 C8.44207758,26.4463806 9.03488156,26.2211609 9.66064453,26.2435913 L10.827942,26.2454224 L15.6408691,16.539917 C18.0963135,18.3055114 21.0337829,19.2576599 24.1181946,19.2576599 L31.3815307,19.2576599 L34.2997741,26.2426758 L35.4689026,26.2435913 C36.0964966,26.2211609 36.6879272,26.4463806 37.1369934,26.8789673 C37.5869752,27.3124695 37.8346253,27.8952026 37.8346253,28.5195923 C37.8346253,29.7756959 36.8128968,30.7974244 35.5567932,30.7974244 L33.6428834,30.7974244 L33.6428834,34.9241638 C33.6428834,36.4041138 32.4385071,37.60849 30.9585572,37.60849 L28.30719,37.60849 L28.30719,43.684845 L16.822815,43.684845 L16.822815,37.60849 L14.1714478,37.60849 C12.6914978,37.60849 11.4875794,36.4041138 11.4875794,34.9241638 L11.4875794,30.7974244 L9.57321164,30.7974244 Z M22.5650025,3.515625 L34.3016052,3.515625 C35.5842591,5.79254156 38.9872741,12.698822 38.025055,20.4116822 L37.7861023,23.1687927 C37.4134827,23.0136108 37.0252991,22.8973389 36.6256713,22.8236389 C35.8406067,20.8914185 34.193573,16.8383789 34.193573,16.8383789 L33.7481689,15.7420349 L24.1181946,15.7420349 C21.1679077,15.7420349 18.3943177,14.5930481 16.3078308,12.507019 L14.5793152,10.7785034 L13.4907532,12.9675293 C12.0579529,15.8496094 9.59884641,20.7948304 8.59771734,22.8067017 C8.16558844,22.8794861 7.74581906,23.0007935 7.34436035,23.168335 L7.11090094,20.4670716 C6.70944211,16.1306763 8.16192633,11.7979431 11.0957337,8.57986453 C14.029541,5.36132813 18.2102966,3.515625 22.5650025,3.515625 L22.5650025,3.515625 Z M39.0921021,43.8400268 C38.5990905,43.7384033 38.0882263,43.684845 37.5650025,43.684845 L31.822815,43.684845 L31.822815,41.0641479 C34.3414307,40.7112122 36.3784791,38.8394166 36.9776917,36.4077759 L39.0921021,36.4077759 L39.0921021,43.8400268 Z M24.6185303,50.15625 L20.5114746,50.15625 L19.797821,47.20047 L25.3321839,47.20047 L24.6185303,50.15625 Z M20.4039001,53.671875 L24.7261048,53.671875 L25.9318542,56.484375 L19.1986084,56.484375 L20.4039001,53.671875 Z M29.7564697,56.484375 L27.8059388,51.9332885 L28.9489746,47.20047 L37.5650025,47.20047 C39.7979736,47.20047 41.6143799,49.0168763 41.6143799,51.2498474 L41.6143799,56.484375 L29.7564697,56.484375 Z" id="Shape" fill="url(#linearGradient-1)"></path>
                <polygon id="Path" fill="#F7B30D" points="15.4838562 22.5059509 18.8150025 22.5059509 18.8150025 26.0215759 15.4838562 26.0215759"></polygon>
                <polygon id="Path" fill="#F7B30D" points="26.3150025 22.5059509 29.6466064 22.5059509 29.6466064 26.0215759 26.3150025 26.0215759"></polygon>
                <path d="M16.6351318,31.247406 C17.7241516,33.5124206 20.0518799,34.9758912 22.5650025,34.9758912 C25.0785827,34.9758912 27.4058532,33.5124206 28.494873,31.247406 L28.6390686,30.9480286 L25.4704284,29.4245911 L25.3266907,29.7239685 C24.8194886,30.778656 23.7355042,31.4602662 22.5650025,31.4602662 C21.3949584,31.4602662 20.3109741,30.778656 19.803772,29.7239685 L19.6595764,29.4245911 L16.491394,30.9480286 L16.6351318,31.247406 Z" id="Path" fill="#F7B30D"></path>
            </g>
        </g>
    </g>
</svg>