<?xml version="1.0" encoding="UTF-8"?>
<svg width="110px" height="110px" viewBox="0 0 110 110" version="1.1" xmlns="http://www.w3.org/2000/svg" xmlns:xlink="http://www.w3.org/1999/xlink">
    <!-- Generator: Sketch 58 (84663) - https://sketch.com -->
    <title>Group</title>
    <desc>Created with Sketch.</desc>
    <defs>
        <linearGradient x1="-43.5616629%" y1="-14.5567602%" x2="337.060547%" y2="101.405054%" id="linearGradient-1">
            <stop stop-color="#6435E3" offset="0%"></stop>
            <stop stop-color="#DF4AFF" offset="100%"></stop>
        </linearGradient>
        <linearGradient x1="6.549842%" y1="0%" x2="93.450158%" y2="100%" id="linearGradient-2">
            <stop stop-color="#6435E3" offset="0%"></stop>
            <stop stop-color="#DF4AFF" offset="100%"></stop>
        </linearGradient>
        <linearGradient x1="-13.4535846%" y1="-740.820312%" x2="244.684662%" y2="679.711914%" id="linearGradient-3">
            <stop stop-color="#6435E3" offset="0%"></stop>
            <stop stop-color="#DF4AFF" offset="100%"></stop>
        </linearGradient>
    </defs>
    <g id="Page-1" stroke="none" stroke-width="1" fill="none" fill-rule="evenodd">
        <g id="Group" transform="translate(-112.000000, -106.000000)">
            <rect id="Rectangle" fill="#F6F5F5" x="112" y="106" width="110" height="110" rx="10"></rect>
            <g id="Group-2" transform="translate(203.000000, 116.000000)" fill="#D85FFF">
                <circle id="Oval-Copy" cx="4.5" cy="4.5" r="4.5"></circle>
            </g>
            <g id="005-archives" transform="translate(140.000000, 132.000000)" fill-rule="nonzero">
                <path d="M19.25,31 L8.75,31 C7.78339847,31 7,31.8953125 7,33 C7,34.1046875 7.78339847,35 8.75,35 L19.25,35 C20.2166015,35 21,34.1046875 21,33 C21,31.8953125 20.2166015,31 19.25,31 Z" id="Path" fill="url(#linearGradient-1)"></path>
                <path d="M19.25,38 L8.75,38 C7.78339847,38 7,38.8953125 7,40 C7,41.1046875 7.78339847,42 8.75,42 L19.25,42 C20.2166015,42 21,41.1046875 21,40 C21,38.8953125 20.2166015,38 19.25,38 Z" id="Path" fill="url(#linearGradient-1)"></path>
                <path d="M19.25,45 L8.75,45 C7.78339847,45 7,45.8953125 7,47 C7,48.1046875 7.78339847,49 8.75,49 L19.25,49 C20.2166015,49 21,48.1046875 21,47 C21,45.8953125 20.2166015,45 19.25,45 Z" id="Path" fill="url(#linearGradient-1)"></path>
                <path d="M53.28125,31.34375 L37.8125,31.34375 L37.8125,12.0996094 C37.8125,11.6341706 37.6204834,11.1907882 37.30896,10.8774948 L26.99646,0.506401033 C26.99646,0.505950928 26.99646,0.505950928 26.99646,0.505950928 C26.6786702,0.186805754 26.2409261,0 25.78125,0 L1.71875,0 C0.769409208,0 0,0.773780852 0,1.72851562 L0,53.5839844 C0,54.5387191 0.769409208,55.3125 1.71875,55.3125 L24.0625,55.3125 L24.0625,57.2714844 C24.0625,58.2262191 24.8319092,59 25.78125,59 L53.28125,59 C54.2305908,59 55,58.2262191 55,57.2714844 L55,33.0722656 C55,32.1175309 54.2305908,31.34375 53.28125,31.34375 Z M51.5625,46.184227 L44.18396,38.7642135 C43.5130208,38.0890121 42.4244792,38.0890121 41.75354,38.7642135 L36.09375,44.4557113 L33.87146,42.2212448 C33.2005208,41.5460434 32.1119792,41.5460434 31.44104,42.2212448 L27.5,46.184227 L27.5,34.8007813 L51.5625,34.8007813 L51.5625,46.184227 Z M27.5,5.90171054 L31.9441325,10.3710938 L27.5,10.3710938 L27.5,5.90171054 Z M3.4375,51.8554688 L3.4375,3.45703125 L24.0625,3.45703125 L24.0625,12.0996094 C24.0625,13.0543441 24.8319092,13.828125 25.78125,13.828125 L34.375,13.828125 L34.375,31.34375 L25.78125,31.34375 C24.8319092,31.34375 24.0625,32.1175309 24.0625,33.0722656 L24.0625,51.8554688 L3.4375,51.8554688 Z M27.5,55.5429687 L27.5,51.0735855 L32.65625,45.8880387 L38.31604,51.5795365 C38.9869792,52.2547379 40.0755208,52.2547379 40.74646,51.5795365 C41.4178467,50.9047852 41.4178467,49.8105087 40.74646,49.1353073 L38.5246175,46.9003906 L42.96875,42.4310074 L51.5625,51.0735855 L51.5625,55.5429687 L27.5,55.5429687 Z" id="Shape" fill="url(#linearGradient-2)"></path>
                <path d="M20.2207031,18.0855893 L9.72070307,11.285651 C9.18385417,10.9376855 8.49342445,10.905368 7.92421875,11.2010946 C7.35546875,11.4972638 7,12.073222 7,12.7000914 L7,26.2999679 C7,26.9268373 7.35546875,27.5027955 7.92421875,27.7989647 C8.49205723,28.0938058 9.18248695,28.0632593 9.72070307,27.7144083 L20.2207031,20.91447 C20.7074219,20.5992645 21,20.068462 21,19.5000297 C21,18.9315973 20.7074219,18.4007948 20.2207031,18.0855893 Z M10.5,23.1235645 L10.5,15.8764949 L16.0949869,19.5000297 L10.5,23.1235645 Z" id="Shape" fill="url(#linearGradient-3)"></path>
            </g>
        </g>
    </g>
</svg>