<?xml version="1.0" encoding="UTF-8"?>
<svg width="110px" height="110px" viewBox="0 0 110 110" version="1.1" xmlns="http://www.w3.org/2000/svg" xmlns:xlink="http://www.w3.org/1999/xlink">
    <!-- Generator: Sketch 58 (84663) - https://sketch.com -->
    <title>Group</title>
    <desc>Created with Sketch.</desc>
    <defs>
        <linearGradient x1="0%" y1="2.01942998%" x2="100%" y2="97.98057%" id="linearGradient-1">
            <stop stop-color="#F7590D" offset="0%"></stop>
            <stop stop-color="#F7B30D" offset="100%"></stop>
        </linearGradient>
    </defs>
    <g id="Page-1" stroke="none" stroke-width="1" fill="none" fill-rule="evenodd">
        <g id="Group">
            <rect id="Rectangle" fill="#323440" x="0" y="0" width="110" height="110" rx="10"></rect>
            <g id="Group-2" transform="translate(91.000000, 10.000000)" fill="#F7B30D">
                <circle id="Oval-Copy" cx="4.5" cy="4.5" r="4.5"></circle>
            </g>
            <g id="011-money" transform="translate(25.000000, 26.000000)" fill-rule="nonzero">
                <path d="M59.8627173,31.717719 C59.7357075,30.0611097 59.018879,28.5013566 57.8442671,27.3267447 C56.4334536,25.9159312 54.4817064,25.1776298 52.4897547,25.3014415 C50.4982599,25.4257101 48.6534202,26.400213 47.4285527,27.9750428 L42.7566035,33.981965 C41.8862669,32.7835959 40.5956101,31.9109749 39.1021033,31.5820287 C43.8686243,28.5447593 47.0370154,23.2126335 47.0370154,17.154085 C47.0370154,7.7274933 39.3680013,0.0584793159 29.9414098,0.0584793159 C20.5148182,0.0584793159 12.8458041,7.7274933 12.8458041,17.154085 C12.8458041,23.1176046 15.9159682,28.3766312 20.5577639,31.4367441 L0,31.4367441 L0,58.7196294 L13.150993,58.7196294 L13.150993,55.4639762 L44.5292578,55.4639762 L58.5355109,36.3645403 C59.5177806,35.0245416 59.9892701,33.3743283 59.8627173,31.717719 Z M3.50875896,55.2108705 L3.50875896,34.9455031 L9.64223406,34.9455031 L9.64223406,55.2108705 L3.50875896,55.2108705 Z M13.150993,34.9455031 L37.7776381,34.9455031 C39.2345954,34.9455031 40.4201722,36.130623 40.4201722,37.5880372 C40.4201722,39.0449946 39.2345954,40.2301144 37.7776381,40.2301144 L27.5181731,40.2301144 L27.5181731,43.7388734 L37.7776381,43.7388734 C40.9510547,43.7388734 43.5707453,41.3229466 43.8946659,38.2335941 L50.1980965,30.1291832 C50.8144137,29.3369712 51.7057665,28.8659386 52.7081384,28.8033474 C53.7109674,28.7412131 54.6530325,29.0980283 55.363008,29.8080038 C56.5764538,31.0209928 56.7203678,32.9060369 55.7056602,34.2894382 L42.7511212,51.9552173 L13.150993,51.9552173 L13.150993,34.9455031 Z M29.9414098,3.56723827 C37.4331584,3.56723827 43.5282565,9.66233632 43.5282565,17.154085 C43.5282565,24.6458335 37.4331584,30.7404748 29.9414098,30.7404748 C22.4496611,30.7404748 16.354563,24.6458335 16.354563,17.154085 C16.354563,9.66233632 22.4496611,3.56723827 29.9414098,3.56723827 Z" id="Shape" fill="url(#linearGradient-1)"></path>
                <path d="M29.7783073,20.7217801 C28.3012476,20.7217801 26.6135712,20.2420669 25.3475853,19.4941713 L23.8897142,22.7932271 C25.0405689,23.5032026 26.901399,24.0208359 28.8193379,24.135967 L28.8193379,26.169037 L31.5240062,26.169037 L31.5240062,24.0400244 C34.497314,23.5223912 35.9931053,21.7191266 35.9931053,19.6472227 C35.9931053,14.6988674 28.5698871,16.0411505 28.5698871,14.430228 C28.5698871,13.9697034 28.9920346,13.5863898 30.315586,13.5863898 C31.4856292,13.5863898 32.7324265,13.9121379 34.0559779,14.5837363 L35.4179064,11.3034121 C34.3241603,10.6898363 32.9435003,10.3252542 31.5240062,10.1909345 L31.5240062,8.13867611 L28.8193379,8.13867611 L28.8193379,10.2293117 C25.6737903,10.6706477 24.1007881,12.4926439 24.1007881,14.6604904 C24.1007881,19.6664113 31.5240062,18.3049396 31.5240062,19.9926161 C31.5240062,20.4531407 31.0634816,20.7217801 29.7783073,20.7217801 Z" id="Path" fill="#F7B30D"></path>
            </g>
        </g>
    </g>
</svg>